<svg xmlns="http://www.w3.org/2000/svg" viewBox="0 0 800 800" width="800" height="800" role="img" aria-label="Miyota movement placeholder">
  <rect width="800" height="800" fill="#0A0A0A"/>
  <defs>
    <radialGradient id="glow" cx="50%" cy="50%" r="50%">
      <stop offset="0%" stop-color="#C9A96E" stop-opacity="0.06"/>
      <stop offset="60%" stop-color="#C9A96E" stop-opacity="0"/>
    </radialGradient>
  </defs>
  <rect width="800" height="800" fill="url(#glow)"/>
  <circle cx="400" cy="400" r="300" fill="none" stroke="#C9A96E" stroke-opacity="0.3" stroke-width="1"/>
  <circle cx="400" cy="400" r="240" fill="none" stroke="#C9A96E" stroke-opacity="0.4" stroke-width="1"/>
  <circle cx="400" cy="400" r="180" fill="none" stroke="#C9A96E" stroke-opacity="0.5" stroke-width="1"/>
  <g stroke="#C9A96E" stroke-opacity="0.25" stroke-width="1.5" stroke-linecap="round">
    <line x1="400" y1="92" x2="400" y2="116"/>
    <line x1="554" y1="133.4" x2="542" y2="154.2"/>
    <line x1="666.6" y1="246" x2="645.8" y2="258"/>
    <line x1="708" y1="400" x2="684" y2="400"/>
    <line x1="666.6" y1="554" x2="645.8" y2="542"/>
    <line x1="554" y1="666.6" x2="542" y2="645.8"/>
    <line x1="400" y1="708" x2="400" y2="684"/>
    <line x1="246" y1="666.6" x2="258" y2="645.8"/>
    <line x1="133.4" y1="554" x2="154.2" y2="542"/>
    <line x1="92" y1="400" x2="116" y2="400"/>
    <line x1="133.4" y1="246" x2="154.2" y2="258"/>
    <line x1="246" y1="133.4" x2="258" y2="154.2"/>
  </g>
  <circle cx="400" cy="400" r="4" fill="#C9A96E" fill-opacity="0.6"/>
  <text x="400" y="416" font-family="ui-sans-serif, system-ui, -apple-system, sans-serif" font-weight="500" font-size="40" letter-spacing="4" fill="#F5F3EF" text-anchor="middle" dominant-baseline="middle">MIYOTA</text>
</svg>
